<mxfile host="app.diagrams.net" modified="2023-01-14T06:55:06.644Z" agent="5.0 (Windows NT 10.0; Win64; x64) AppleWebKit/537.36 (KHTML, like Gecko) Chrome/105.0.0.0 Safari/537.36" version="20.8.5" etag="TIW63K5sWWfvnw96NXv0" type="github">
  <diagram id="J2MnjOrFb4amIE_kZ2wo" name="第 1 页">
    <mxGraphModel dx="881" dy="1274" grid="1" gridSize="10" guides="1" tooltips="1" connect="1" arrows="1" fold="1" page="1" pageScale="1" pageWidth="827" pageHeight="1169" math="0" shadow="0">
      <root>
        <mxCell id="0" />
        <mxCell id="1" parent="0" />
        <mxCell id="d07pl93fS8qno-X2YD1w-11" value="nettrace\src\trace.h&lt;br&gt;struct trace_ops_t" style="swimlane;fontStyle=0;childLayout=stackLayout;horizontal=1;startSize=30;horizontalStack=0;resizeParent=1;resizeParentMax=0;resizeLast=0;collapsible=1;marginBottom=0;whiteSpace=wrap;html=1;rounded=0;labelBackgroundColor=none;fillColor=#d5e8d4;strokeColor=#82b366;" vertex="1" parent="1">
          <mxGeometry x="120" y="220" width="200" height="270" as="geometry" />
        </mxCell>
        <mxCell id="d07pl93fS8qno-X2YD1w-12" value="int (*trace_load)()" style="text;strokeColor=none;fillColor=none;align=left;verticalAlign=middle;spacingLeft=4;spacingRight=4;overflow=hidden;points=[[0,0.5],[1,0.5]];portConstraint=eastwest;rotatable=0;whiteSpace=wrap;html=1;rounded=0;labelBackgroundColor=none;fontColor=#46495D;" vertex="1" parent="d07pl93fS8qno-X2YD1w-11">
          <mxGeometry y="30" width="200" height="30" as="geometry" />
        </mxCell>
        <mxCell id="d07pl93fS8qno-X2YD1w-15" value="int (*trace_attach)()" style="text;strokeColor=none;fillColor=none;align=left;verticalAlign=middle;spacingLeft=4;spacingRight=4;overflow=hidden;points=[[0,0.5],[1,0.5]];portConstraint=eastwest;rotatable=0;whiteSpace=wrap;html=1;rounded=0;labelBackgroundColor=none;fontColor=#46495D;" vertex="1" parent="d07pl93fS8qno-X2YD1w-11">
          <mxGeometry y="60" width="200" height="30" as="geometry" />
        </mxCell>
        <mxCell id="d07pl93fS8qno-X2YD1w-13" value="void (*trace_poll)(void *ctx, int cpu, &lt;br&gt;&lt;span style=&quot;white-space: pre;&quot;&gt;	&lt;/span&gt;&lt;span style=&quot;white-space: pre;&quot;&gt;	&lt;/span&gt;&lt;span style=&quot;white-space: pre;&quot;&gt;	&lt;/span&gt;void *data, u32 size)" style="text;strokeColor=none;fillColor=none;align=left;verticalAlign=middle;spacingLeft=4;spacingRight=4;overflow=hidden;points=[[0,0.5],[1,0.5]];portConstraint=eastwest;rotatable=0;whiteSpace=wrap;html=1;rounded=0;labelBackgroundColor=none;fontColor=#46495D;" vertex="1" parent="d07pl93fS8qno-X2YD1w-11">
          <mxGeometry y="90" width="200" height="30" as="geometry" />
        </mxCell>
        <mxCell id="d07pl93fS8qno-X2YD1w-16" value="int (*trace_anal)(event_t *e)" style="text;strokeColor=none;fillColor=none;align=left;verticalAlign=middle;spacingLeft=4;spacingRight=4;overflow=hidden;points=[[0,0.5],[1,0.5]];portConstraint=eastwest;rotatable=0;whiteSpace=wrap;html=1;rounded=0;labelBackgroundColor=none;fontColor=#46495D;" vertex="1" parent="d07pl93fS8qno-X2YD1w-11">
          <mxGeometry y="120" width="200" height="30" as="geometry" />
        </mxCell>
        <mxCell id="d07pl93fS8qno-X2YD1w-14" value="void (*trace_close)()" style="text;strokeColor=none;fillColor=none;align=left;verticalAlign=middle;spacingLeft=4;spacingRight=4;overflow=hidden;points=[[0,0.5],[1,0.5]];portConstraint=eastwest;rotatable=0;whiteSpace=wrap;html=1;rounded=0;labelBackgroundColor=none;fontColor=#46495D;" vertex="1" parent="d07pl93fS8qno-X2YD1w-11">
          <mxGeometry y="150" width="200" height="30" as="geometry" />
        </mxCell>
        <mxCell id="d07pl93fS8qno-X2YD1w-17" value="void (*trace_ready)()" style="text;strokeColor=none;fillColor=none;align=left;verticalAlign=middle;spacingLeft=4;spacingRight=4;overflow=hidden;points=[[0,0.5],[1,0.5]];portConstraint=eastwest;rotatable=0;whiteSpace=wrap;html=1;rounded=0;labelBackgroundColor=none;fontColor=#46495D;" vertex="1" parent="d07pl93fS8qno-X2YD1w-11">
          <mxGeometry y="180" width="200" height="30" as="geometry" />
        </mxCell>
        <mxCell id="d07pl93fS8qno-X2YD1w-18" value="void (*print_stack)(int key)" style="text;strokeColor=none;fillColor=none;align=left;verticalAlign=middle;spacingLeft=4;spacingRight=4;overflow=hidden;points=[[0,0.5],[1,0.5]];portConstraint=eastwest;rotatable=0;whiteSpace=wrap;html=1;rounded=0;labelBackgroundColor=none;fontColor=#46495D;" vertex="1" parent="d07pl93fS8qno-X2YD1w-11">
          <mxGeometry y="210" width="200" height="30" as="geometry" />
        </mxCell>
        <mxCell id="d07pl93fS8qno-X2YD1w-19" value="struct analyzer *analyzer" style="text;strokeColor=none;fillColor=none;align=left;verticalAlign=middle;spacingLeft=4;spacingRight=4;overflow=hidden;points=[[0,0.5],[1,0.5]];portConstraint=eastwest;rotatable=0;whiteSpace=wrap;html=1;rounded=0;labelBackgroundColor=none;fontColor=#46495D;" vertex="1" parent="d07pl93fS8qno-X2YD1w-11">
          <mxGeometry y="240" width="200" height="30" as="geometry" />
        </mxCell>
        <mxCell id="d07pl93fS8qno-X2YD1w-21" value="nettrace\src\analysis.h&lt;br&gt;struct analyzer" style="swimlane;fontStyle=0;childLayout=stackLayout;horizontal=1;startSize=30;horizontalStack=0;resizeParent=1;resizeParentMax=0;resizeLast=0;collapsible=1;marginBottom=0;whiteSpace=wrap;html=1;rounded=0;labelBackgroundColor=none;fillColor=#ffe6cc;strokeColor=#d79b00;" vertex="1" parent="1">
          <mxGeometry x="440" y="530" width="360" height="150" as="geometry" />
        </mxCell>
        <mxCell id="d07pl93fS8qno-X2YD1w-22" value="analyzer_result_t (*analy_entry)(trace_t *trace, analy_entry_t *e)" style="text;strokeColor=none;fillColor=none;align=left;verticalAlign=middle;spacingLeft=4;spacingRight=4;overflow=hidden;points=[[0,0.5],[1,0.5]];portConstraint=eastwest;rotatable=0;whiteSpace=wrap;html=1;rounded=0;labelBackgroundColor=none;fontColor=#46495D;" vertex="1" parent="d07pl93fS8qno-X2YD1w-21">
          <mxGeometry y="30" width="360" height="30" as="geometry" />
        </mxCell>
        <mxCell id="d07pl93fS8qno-X2YD1w-23" value="analyzer_result_t (*analy_exit)(trace_t *trace, analy_exit_t *e)" style="text;strokeColor=none;fillColor=none;align=left;verticalAlign=middle;spacingLeft=4;spacingRight=4;overflow=hidden;points=[[0,0.5],[1,0.5]];portConstraint=eastwest;rotatable=0;whiteSpace=wrap;html=1;rounded=0;labelBackgroundColor=none;fontColor=#46495D;" vertex="1" parent="d07pl93fS8qno-X2YD1w-21">
          <mxGeometry y="60" width="360" height="30" as="geometry" />
        </mxCell>
        <mxCell id="d07pl93fS8qno-X2YD1w-24" value="char *name" style="text;strokeColor=none;fillColor=none;align=left;verticalAlign=middle;spacingLeft=4;spacingRight=4;overflow=hidden;points=[[0,0.5],[1,0.5]];portConstraint=eastwest;rotatable=0;whiteSpace=wrap;html=1;rounded=0;labelBackgroundColor=none;fontColor=#46495D;" vertex="1" parent="d07pl93fS8qno-X2YD1w-21">
          <mxGeometry y="90" width="360" height="30" as="geometry" />
        </mxCell>
        <mxCell id="d07pl93fS8qno-X2YD1w-25" value="u32 mode" style="text;strokeColor=none;fillColor=none;align=left;verticalAlign=middle;spacingLeft=4;spacingRight=4;overflow=hidden;points=[[0,0.5],[1,0.5]];portConstraint=eastwest;rotatable=0;whiteSpace=wrap;html=1;rounded=0;labelBackgroundColor=none;fontColor=#46495D;" vertex="1" parent="d07pl93fS8qno-X2YD1w-21">
          <mxGeometry y="120" width="360" height="30" as="geometry" />
        </mxCell>
        <mxCell id="d07pl93fS8qno-X2YD1w-27" style="edgeStyle=orthogonalEdgeStyle;rounded=0;orthogonalLoop=1;jettySize=auto;html=1;exitX=1;exitY=0.5;exitDx=0;exitDy=0;entryX=0.5;entryY=0;entryDx=0;entryDy=0;labelBackgroundColor=none;fontColor=default;strokeColor=#788AA3;" edge="1" parent="1" source="d07pl93fS8qno-X2YD1w-19" target="d07pl93fS8qno-X2YD1w-21">
          <mxGeometry relative="1" as="geometry" />
        </mxCell>
      </root>
    </mxGraphModel>
  </diagram>
</mxfile>
